<svg width="32" height="32" viewBox="0 0 32 32" fill="none" xmlns="http://www.w3.org/2000/svg">
  <defs>
    <linearGradient id="gradient" x1="0%" y1="0%" x2="100%" y2="100%">
      <stop offset="0%" style="stop-color:#8B5CF6;stop-opacity:1" />
      <stop offset="100%" style="stop-color:#EC4899;stop-opacity:1" />
    </linearGradient>
  </defs>
  
  <!-- Background circle -->
  <circle cx="16" cy="16" r="15" fill="url(#gradient)" stroke="#ffffff" stroke-width="1"/>
  
  <!-- AI brain/circuit pattern -->
  <g fill="#ffffff" opacity="0.9">
    <!-- Central node -->
    <circle cx="16" cy="16" r="2.5" fill="#ffffff"/>
    
    <!-- Neural connections -->
    <circle cx="10" cy="10" r="1.5"/>
    <circle cx="22" cy="10" r="1.5"/>
    <circle cx="10" cy="22" r="1.5"/>
    <circle cx="22" cy="22" r="1.5"/>
    
    <!-- Connection lines -->
    <line x1="16" y1="16" x2="10" y2="10" stroke="#ffffff" stroke-width="1.5" opacity="0.8"/>
    <line x1="16" y1="16" x2="22" y2="10" stroke="#ffffff" stroke-width="1.5" opacity="0.8"/>
    <line x1="16" y1="16" x2="10" y2="22" stroke="#ffffff" stroke-width="1.5" opacity="0.8"/>
    <line x1="16" y1="16" x2="22" y2="22" stroke="#ffffff" stroke-width="1.5" opacity="0.8"/>
    
    <!-- Additional small nodes -->
    <circle cx="6" cy="16" r="1"/>
    <circle cx="26" cy="16" r="1"/>
    <circle cx="16" cy="6" r="1"/>
    <circle cx="16" cy="26" r="1"/>
    
    <!-- More connections -->
    <line x1="16" y1="16" x2="6" y2="16" stroke="#ffffff" stroke-width="1" opacity="0.6"/>
    <line x1="16" y1="16" x2="26" y2="16" stroke="#ffffff" stroke-width="1" opacity="0.6"/>
    <line x1="16" y1="16" x2="16" y2="6" stroke="#ffffff" stroke-width="1" opacity="0.6"/>
    <line x1="16" y1="16" x2="16" y2="26" stroke="#ffffff" stroke-width="1" opacity="0.6"/>
  </g>
</svg>